<svg xmlns="http://www.w3.org/2000/svg" viewBox="0 0 128 128" role="img" aria-labelledby="title desc">
  <title id="title">Manuales</title>
  <desc id="desc">Libro de documentacion tecnica con simbolos de codigo.</desc>
  <defs>
    <linearGradient id="navy" x1="18" y1="20" x2="108" y2="112" gradientUnits="userSpaceOnUse">
      <stop offset="0" stop-color="#06182d"/>
      <stop offset="1" stop-color="#082845"/>
    </linearGradient>
    <linearGradient id="mint" x1="28" y1="18" x2="94" y2="96" gradientUnits="userSpaceOnUse">
      <stop offset="0" stop-color="#7ee3cf"/>
      <stop offset="1" stop-color="#35a88c"/>
    </linearGradient>
  </defs>

  <rect x="10" y="10" width="108" height="108" rx="24" fill="#f7fbff"/>

  <path
    d="M24 38
       C42 38 57 44 64 56
       C71 44 86 38 104 38
       L104 96
       C86 96 71 100 65 112
       C64 114 63 114 62 112
       C56 100 42 96 24 96
       Z"
    fill="url(#navy)"
  />

  <path
    d="M35 27
       C51 30 64 36 75 47
       C61 40 48 36 35 36
       Z"
    fill="url(#mint)"
  />

  <path d="M51 57 C44 57 42 61 42 68 C42 73 40 76 36 78 C40 80 42 83 42 88 C42 95 44 99 51 99"
        fill="none" stroke="#ffffff" stroke-width="8" stroke-linecap="square" stroke-linejoin="round"/>
  <path d="M77 57 C84 57 86 61 86 68 C86 73 88 76 92 78 C88 80 86 83 86 88 C86 95 84 99 77 99"
        fill="none" stroke="#ffffff" stroke-width="8" stroke-linecap="square" stroke-linejoin="round"/>

  <path d="M74 49 L58 86" stroke="#ffffff" stroke-width="8" stroke-linecap="square"/>

  <rect x="56" y="70" width="4" height="10" rx="1" fill="#68d8bf"/>
  <rect x="64" y="68" width="4" height="12" rx="1" fill="#68d8bf"/>
  <rect x="72" y="70" width="4" height="10" rx="1" fill="#68d8bf"/>

  <path d="M70 84 L84 93 L78 95 L83 103 L78 106 L73 98 L68 104 Z" fill="url(#mint)"/>
</svg>
